<!DOCTYPE svg PUBLIC "-//W3C//DTD SVG 20010904//EN" "http://www.w3.org/TR/2001/REC-SVG-20010904/DTD/svg10.dtd">
<svg version="1.0" xmlns="http://www.w3.org/2000/svg" width="1024px" height="512px" viewBox="0 0 10240 5120" preserveAspectRatio="xMidYMid meet">
<g id="layer101" fill="#c0e8ec" stroke="none">
 <path d="M0 2560 l0 -2560 5120 0 5120 0 0 2560 0 2560 -5120 0 -5120 0 0 -2560z"/>
 </g>
<g id="layer102" fill="#d0f4f7" stroke="none">
 <path d="M3820 3083 c-318 -31 -600 -75 -908 -142 -125 -28 -292 -60 -372 -72 -80 -12 -151 -23 -157 -25 -10 -3 -13 -90 -13 -391 0 -386 0 -388 -24 -438 -41 -89 -114 -135 -216 -135 -102 0 -175 46 -216 135 -24 50 -24 53 -24 421 l0 371 -147 7 c-187 9 -362 30 -528 61 -71 14 -142 27 -157 30 l-28 5 0 -268 c0 -259 -1 -268 -24 -317 -41 -89 -114 -135 -216 -135 -102 0 -175 46 -216 135 -23 49 -24 56 -24 361 l0 310 -117 18 c-122 18 -317 36 -390 36 l-43 0 0 -1525 0 -1525 5120 0 5120 0 0 1522 0 1521 -131 -7 c-135 -6 -576 -53 -591 -62 -4 -3 -8 -150 -8 -327 0 -317 -1 -323 -24 -372 -41 -89 -114 -135 -216 -135 -102 0 -175 46 -216 135 -23 49 -24 57 -24 328 l0 277 -27 -6 c-16 -3 -116 -28 -223 -54 -107 -27 -215 -52 -240 -57 l-45 -9 -5 -439 c-5 -430 -6 -441 -27 -481 -44 -82 -116 -124 -213 -124 -102 0 -175 46 -216 135 -24 50 -24 52 -24 439 l0 388 -42 -6 c-201 -30 -754 -36 -993 -11 -286 29 -675 96 -1050 179 -251 56 -585 126 -600 126 -3 0 -5 -111 -5 -247 0 -239 -1 -250 -24 -298 -41 -89 -114 -135 -216 -135 -97 0 -169 42 -213 124 -21 39 -22 56 -27 341 l-5 300 -47 5 -48 6 0 -536 0 -535 -24 -50 c-41 -89 -114 -135 -216 -135 -102 0 -175 46 -216 135 l-24 50 0 553 0 552 -202 -2 c-112 0 -219 -3 -238 -5z"/>
 </g>

</svg>