<!DOCTYPE svg PUBLIC "-//W3C//DTD SVG 20010904//EN" "http://www.w3.org/TR/2001/REC-SVG-20010904/DTD/svg10.dtd">
<svg version="1.0" xmlns="http://www.w3.org/2000/svg" width="70px" height="70px" viewBox="0 0 700 700" preserveAspectRatio="xMidYMid meet">
<g id="layer101" fill="#80be1f" stroke="none">
 <path d="M0 350 l0 -350 350 0 350 0 0 350 0 350 -350 0 -350 0 0 -350z"/>
 </g>
<g id="layer102" fill="#a89338" stroke="none">
 <path d="M0 468 l0 -232 57 -58 57 -58 57 56 57 57 61 -53 61 -53 61 53 61 53 57 -57 57 -56 57 58 57 58 0 232 0 232 -350 0 -350 0 0 -232z"/>
 <path d="M0 10 c0 -6 123 -10 350 -10 227 0 350 4 350 10 0 6 -123 10 -350 10 -227 0 -350 -4 -350 -10z"/>
 </g>
<g id="layer103" fill="#ba8044" stroke="none">
 <path d="M0 472 l0 -228 60 -59 60 -60 57 58 58 57 57 -57 58 -58 57 58 58 57 57 -57 58 -57 60 59 60 59 0 228 0 228 -350 0 -350 0 0 -228z"/>
 <path d="M0 10 c0 -6 123 -10 350 -10 227 0 350 4 350 10 0 6 -123 10 -350 10 -227 0 -350 -4 -350 -10z"/>
 </g>
<g id="layer104" fill="#93db24" stroke="none">
 <path d="M0 492 l0 -208 53 -52 c29 -29 57 -52 62 -52 5 0 33 23 62 52 l52 51 60 -52 61 -53 61 53 60 52 52 -51 c29 -29 57 -52 63 -52 5 0 33 24 62 53 l52 53 0 207 0 207 -350 0 -350 0 0 -208z"/>
 <path d="M0 10 c0 -6 123 -10 350 -10 227 0 350 4 350 10 0 6 -123 10 -350 10 -227 0 -350 -4 -350 -10z"/>
 </g>
<g id="layer105" fill="#c58f5c" stroke="none">
 <path d="M0 492 l0 -208 53 -52 c29 -29 57 -52 62 -52 5 0 33 23 62 52 l52 51 60 -52 61 -53 61 53 60 52 52 -51 c29 -29 57 -52 63 -52 5 0 33 24 62 53 l52 53 0 207 0 207 -350 0 -350 0 0 -208z"/>
 </g>
<g id="layer106" fill="#c99869" stroke="none">
 <path d="M0 692 c0 -4 26 -33 58 -65 l58 -57 54 55 c30 30 59 55 64 55 6 0 34 -23 63 -52 l52 -51 61 53 61 53 57 -56 58 -57 57 58 c31 32 57 61 57 65 0 4 -157 7 -350 7 -192 0 -350 -4 -350 -8z"/>
 <path d="M0 460 l0 -74 57 -58 57 -58 58 57 57 56 60 -52 61 -53 61 53 60 52 57 -56 58 -57 57 58 57 58 0 74 0 75 -57 -58 -58 -57 -57 57 -57 56 -60 -52 -61 -53 -61 53 -61 52 -56 -56 -57 -57 -57 57 -58 57 0 -74z"/>
 </g>

</svg>