<!DOCTYPE svg PUBLIC "-//W3C//DTD SVG 20010904//EN" "http://www.w3.org/TR/2001/REC-SVG-20010904/DTD/svg10.dtd">
<svg version="1.0" xmlns="http://www.w3.org/2000/svg" width="70px" height="70px" viewBox="0 0 700 700" preserveAspectRatio="xMidYMid meet">
<g id="layer101" fill="#c58f5c" stroke="none">
 <path d="M0 350 l0 -350 350 0 350 0 0 350 0 350 -350 0 -350 0 0 -350z"/>
 </g>
<g id="layer102" fill="#c99869" stroke="none">
 <path d="M0 692 c0 -4 26 -33 58 -65 l58 -57 54 55 c30 30 59 55 64 55 6 0 34 -23 63 -52 l52 -51 61 53 61 53 57 -56 58 -57 57 58 c31 32 57 61 57 65 0 4 -157 7 -350 7 -192 0 -350 -4 -350 -8z"/>
 <path d="M0 460 l0 -74 57 -58 57 -58 58 57 57 56 60 -52 61 -53 61 53 60 52 57 -56 58 -57 57 58 57 58 0 74 0 75 -57 -58 -58 -57 -57 57 -57 56 -60 -52 -61 -53 -61 53 -61 52 -56 -56 -57 -57 -57 57 -58 57 0 -74z"/>
 <path d="M0 117 l0 -117 350 0 350 0 0 117 0 118 -57 -58 -58 -57 -57 57 -58 57 -60 -59 -60 -59 -60 59 -60 60 -57 -58 -58 -57 -57 57 -58 57 0 -117z"/>
 </g>

</svg>