<!DOCTYPE svg PUBLIC "-//W3C//DTD SVG 20010904//EN" "http://www.w3.org/TR/2001/REC-SVG-20010904/DTD/svg10.dtd">
<svg version="1.0" xmlns="http://www.w3.org/2000/svg" width="122px" height="122px" viewBox="0 0 1220 1220" preserveAspectRatio="xMidYMid meet">
<g id="layer101" fill="#000000" stroke="none">
 <path d="M433 1205 c-202 -64 -367 -237 -418 -440 -19 -76 -19 -224 0 -300 55 -219 237 -398 455 -449 322 -76 653 126 735 449 19 76 19 224 0 300 -51 203 -204 364 -411 435 -46 16 -82 20 -188 19 -78 -1 -148 -6 -173 -14z m-183 -437 c52 -63 139 -88 174 -49 32 35 114 63 186 63 72 0 154 -28 186 -63 35 -39 122 -14 174 49 16 20 38 61 49 92 l19 55 36 -75 c115 -238 35 -517 -188 -662 -258 -167 -609 -65 -742 215 -69 146 -68 302 3 449 l36 73 18 -55 c11 -31 33 -72 49 -92z"/>
 <path d="M525 737 c-127 -51 -200 -174 -177 -299 33 -175 222 -271 380 -192 195 97 193 384 -4 479 -47 23 -156 30 -199 12z"/>
 </g>

</svg>