<!DOCTYPE svg PUBLIC "-//W3C//DTD SVG 20010904//EN" "http://www.w3.org/TR/2001/REC-SVG-20010904/DTD/svg10.dtd">
<svg version="1.0" xmlns="http://www.w3.org/2000/svg" width="1600px" height="1402px" viewBox="0 0 16000 14020" preserveAspectRatio="xMidYMid meet">
<g id="layer101" fill="#80be1f" stroke="none">
 <path d="M36 13968 c-5 -55 -11 -247 -26 -978 -5 -240 -9 -3253 -10 -6712 l0 -6278 8000 0 8000 0 0 7010 0 7010 -7979 0 -7980 0 -5 -52z"/>
 </g>
<g id="layer102" fill="#a89338" stroke="none">
 <path d="M36 13968 c-5 -55 -10 -247 -26 -978 -5 -239 -9 -1877 -9 -3640 l-1 -3205 770 -785 c1481 -1511 1850 -1885 1859 -1888 6 -2 531 518 1168 1155 637 637 1223 1222 1303 1301 l146 143 81 -69 c44 -37 88 -76 98 -86 10 -9 56 -50 104 -89 47 -39 95 -81 107 -93 11 -11 65 -58 120 -104 54 -45 101 -86 104 -89 3 -4 54 -50 115 -102 60 -51 116 -101 125 -109 8 -8 56 -49 105 -90 50 -41 99 -84 110 -95 11 -11 63 -56 115 -100 52 -44 104 -89 115 -100 11 -11 58 -53 105 -92 47 -39 94 -80 105 -90 11 -10 70 -61 130 -113 61 -52 115 -99 120 -106 6 -6 48 -43 95 -82 47 -40 131 -111 186 -160 56 -48 144 -123 195 -167 52 -44 200 -185 330 -314 131 -128 242 -232 248 -230 6 2 104 97 218 210 115 113 255 245 313 294 58 49 113 97 122 106 10 10 57 50 105 91 48 40 97 82 108 93 11 12 63 57 115 100 52 44 104 89 115 100 11 11 58 53 105 92 47 39 96 82 110 95 13 13 56 49 95 81 38 33 90 78 115 101 25 23 88 78 140 122 52 43 106 91 120 105 14 14 67 61 118 105 51 43 146 125 210 181 64 57 167 146 227 198 199 173 333 289 400 350 l67 59 641 -646 c353 -356 728 -729 832 -830 105 -100 403 -392 663 -648 260 -256 479 -466 485 -468 7 -1 111 98 232 220 451 457 1524 1546 1898 1928 l386 395 1 3998 0 3997 -7979 0 -7980 0 -5 -52z"/>
 </g>
<g id="layer103" fill="#bb8044" stroke="none">
 <path d="M36 13968 c-5 -55 -10 -246 -26 -978 -5 -239 -9 -1837 -9 -3550 l-1 -3116 513 -499 c281 -275 902 -891 1378 -1368 l866 -868 1323 1322 1322 1322 1117 -1114 c614 -613 1211 -1208 1327 -1322 l210 -208 435 438 c239 241 533 539 654 661 121 123 522 520 891 882 l671 659 394 -395 c217 -218 419 -421 450 -452 338 -341 1604 -1587 1714 -1688 l84 -76 680 664 c375 364 971 948 1326 1297 l645 634 0 3904 0 3903 -7979 0 -7980 0 -5 -52z"/>
 </g>
<g id="layer104" fill="#c58f5c" stroke="none">
 <path d="M36 13968 c-5 -55 -11 -247 -26 -978 -5 -239 -9 -1630 -10 -3091 l0 -2655 107 -105 c60 -57 351 -343 648 -635 297 -291 628 -613 735 -715 107 -101 211 -200 230 -219 20 -19 76 -69 125 -111 50 -42 113 -97 140 -123 28 -26 82 -73 120 -104 39 -31 75 -61 80 -66 6 -6 66 -54 135 -105 69 -52 128 -100 132 -106 4 -6 25 -20 48 -30 22 -10 40 -21 40 -25 0 -8 92 -50 111 -50 22 0 127 59 192 107 370 277 720 590 1302 1163 176 174 500 492 721 707 l401 392 94 -79 c52 -44 141 -120 199 -170 198 -171 331 -285 425 -365 51 -44 148 -127 215 -185 198 -171 314 -270 407 -349 48 -41 93 -79 98 -85 6 -7 60 -54 120 -106 61 -52 112 -97 115 -100 3 -4 57 -51 120 -105 63 -54 117 -101 120 -105 3 -3 55 -49 115 -100 61 -52 115 -100 120 -106 6 -6 57 -50 115 -99 58 -49 110 -93 115 -99 6 -6 60 -54 120 -106 61 -52 115 -100 120 -106 11 -11 128 -110 157 -133 19 -14 44 4 223 164 39 35 96 85 127 111 31 27 118 103 194 169 171 150 316 276 464 405 63 55 169 147 235 205 66 58 170 148 230 200 61 52 160 138 220 190 61 53 160 138 220 190 61 52 160 138 220 190 61 53 160 138 220 190 268 231 317 273 380 329 l66 60 222 -220 c122 -121 357 -350 522 -510 165 -159 426 -412 580 -563 154 -151 331 -319 394 -375 320 -285 461 -405 551 -468 25 -17 53 -39 62 -49 10 -10 39 -32 65 -50 27 -18 54 -38 60 -45 7 -7 26 -18 43 -26 16 -7 30 -16 30 -19 0 -9 95 -49 116 -49 16 0 130 58 157 80 7 5 39 31 72 57 33 26 62 50 65 53 3 3 36 30 75 60 78 60 90 71 192 161 40 35 143 127 230 204 87 76 510 491 941 922 l782 782 0 3426 0 3425 -7979 0 -7980 0 -5 -52z"/>
 </g>
<g id="layer105" fill="#c99869" stroke="none">
 <path d="M1741 13943 c41 -42 257 -261 481 -487 l407 -409 448 438 c246 241 470 460 498 487 l50 48 -979 0 -979 0 74 -77z"/>
 <path d="M7619 13610 l414 -409 96 81 c53 45 105 91 116 102 11 12 59 54 106 93 47 40 96 83 110 96 13 12 71 63 129 112 58 49 110 94 115 101 6 6 59 53 120 105 60 52 118 102 127 112 17 16 -24 17 -864 17 l-883 -1 414 -409z"/>
 <path d="M12733 13783 c218 -215 447 -438 673 -656 l80 -78 360 363 c198 200 413 418 479 486 l119 122 -976 0 -977 0 242 -237z"/>
 <path d="M0 10907 l0 -1310 228 -235 c125 -129 468 -479 762 -776 295 -298 740 -750 990 -1006 482 -494 638 -650 646 -650 6 0 1633 1600 2199 2162 237 236 435 428 440 428 6 0 26 -14 45 -32 19 -17 88 -77 153 -132 212 -181 231 -198 303 -262 39 -35 102 -89 140 -120 38 -31 76 -64 84 -74 8 -9 58 -52 110 -95 52 -43 100 -83 105 -89 6 -6 60 -54 120 -106 61 -51 112 -97 115 -101 3 -3 50 -44 105 -89 55 -46 105 -89 110 -95 6 -7 57 -52 115 -101 58 -49 110 -94 115 -100 6 -6 53 -47 105 -90 52 -44 104 -88 115 -99 11 -12 63 -56 115 -100 52 -43 100 -84 105 -90 6 -7 44 -40 85 -75 41 -35 107 -91 145 -126 39 -34 93 -82 122 -106 81 -68 230 -197 307 -265 38 -35 72 -63 75 -63 3 0 28 21 54 46 27 25 90 80 140 122 51 42 101 86 112 97 11 12 63 56 115 99 52 43 100 84 105 90 6 6 60 54 120 106 61 52 115 99 120 105 6 7 53 47 105 90 52 44 104 88 115 100 11 11 59 52 105 91 47 39 97 83 112 97 15 14 67 58 115 99 48 40 97 83 108 94 11 12 52 48 90 79 39 32 93 79 120 104 28 26 89 81 138 121 109 93 254 219 433 375 238 208 346 302 462 401 l113 97 117 -114 c64 -62 405 -397 757 -744 352 -347 854 -839 1115 -1094 261 -255 515 -504 563 -552 48 -49 92 -89 96 -89 5 0 208 204 452 453 244 248 734 747 1088 1107 355 360 719 729 808 820 l163 166 -2 1323 -3 1323 -591 -604 c-325 -331 -894 -901 -1265 -1264 l-675 -662 -900 897 c-494 493 -1086 1078 -1314 1299 l-415 402 -50 -49 c-27 -26 -90 -81 -138 -122 -114 -96 -251 -215 -423 -364 -76 -66 -172 -148 -213 -183 -42 -35 -83 -71 -91 -80 -8 -9 -56 -51 -105 -92 -49 -41 -97 -82 -106 -91 -9 -9 -59 -52 -110 -95 -52 -44 -103 -88 -114 -99 -11 -12 -63 -56 -115 -99 -52 -43 -99 -84 -105 -90 -5 -7 -59 -54 -120 -106 -60 -52 -114 -100 -120 -106 -5 -6 -57 -50 -115 -99 -58 -49 -109 -93 -115 -100 -5 -6 -59 -53 -120 -105 -60 -52 -114 -100 -120 -106 -5 -6 -57 -50 -115 -99 -58 -49 -109 -93 -115 -99 -5 -6 -59 -54 -120 -106 -60 -52 -118 -103 -127 -112 -17 -17 -24 -12 -159 105 -77 67 -185 160 -239 207 -54 47 -160 139 -235 205 -75 66 -176 154 -224 195 -48 41 -99 85 -112 98 -13 13 -62 56 -109 95 -47 39 -94 81 -105 92 -11 11 -67 60 -125 109 -58 49 -109 94 -115 101 -5 6 -48 42 -95 80 -47 38 -87 72 -90 75 -3 4 -48 42 -100 86 -52 43 -102 86 -110 94 -9 9 -47 41 -85 72 -39 30 -82 66 -96 80 -14 13 -61 53 -104 88 -43 35 -90 75 -104 88 -14 14 -48 43 -76 64 -27 22 -66 54 -85 72 -19 17 -78 67 -130 110 -52 44 -97 82 -100 86 -3 3 -41 35 -85 71 -44 36 -96 80 -115 97 l-35 32 -1297 -1297 -1298 -1298 -762 761 c-420 418 -974 967 -1233 1219 -259 251 -512 499 -562 550 l-93 92 0 -1310z"/>
 </g>

</svg>