<svg xmlns="http://www.w3.org/2000/svg" version="1.1" xmlns:xlink="http://www.w3.org/1999/xlink" preserveAspectRatio="none" x="0px" y="0px" width="2500px" height="1300px" viewBox="0 0 2500 1300">
  <defs>
  <g id="Layer0_5_FILL">
  <path fill="#CB8A48" stroke="none" d="
  M 340.8 83.55
  Q 341.9 82.9 342.55 81.8
  L 345.7 76.55
  Q 344.55 76.25 343.4 76.1
  L 343.3 76.1
  Q 336.8 75.15 330.15 75.7
  L 330 75.7
  Q 323.4 76.4 316.55 78.6
  L 316.45 78.65
  Q 316.35 78.7 316.3 78.7 315.1 79.05 313.85 79.45 310.1 81 306.35 82 304.4 82.55 302.4 83 301.35 83.2 300.3 83.4
  L 300.25 83.4
  Q 297.55 83.85 294.75 84.05 287.95 84.7 280.95 83.9 277 83.55 273.05 82.7 269.2 81.9 265.4 80.7 265.35 80.7 265.25 80.65 264.1 80.25 263 79.9 261.3 79.25 260 78.7 258.95 78.25 257.85 77.85
  L 257.7 77.85
  Q 257.65 77.85 257.55 77.8 253.95 76.35 250.1 75.6 249.8 75.55 249.55 75.5 249.15 75.4 248.75 75.4 247.85 75.15 246.9 74.95 246.85 74.95 246.75 74.95 240.3 74 233.6 74.6
  L 233.5 74.6
  Q 226.85 75.3 220 77.45
  L 219.95 77.5
  Q 219.85 77.55 219.8 77.55 218.55 77.9 217.35 78.3 213.6 79.85 209.85 80.9 207.85 81.45 205.85 81.85 204.85 82.15 203.8 82.25
  L 203.75 82.25
  Q 201.05 82.75 198.2 82.95 191.4 83.6 184.4 82.8 180.5 82.4 176.55 81.6 176.4 81.55 176.25 81.55
  L 178.7 87.05
  Q 179.35 88.45 180.65 89.25 181.9 90.05 183.45 90
  L 338.45 84.25
  Q 339.7 84.2 340.8 83.55
  M 355.3 60.3
  Q 355.75 59.55 355.9 58.7 355.15 58.4 354.35 58.1
  L 354.2 58.1
  Q 354.15 58.1 354.05 58.05 350.45 56.65 346.6 55.95 346.35 55.9 346.1 55.85 344.8 55.55 343.4 55.35
  L 343.3 55.35
  Q 336.8 54.45 330.15 55.1
  L 330 55.1
  Q 323.4 55.85 316.55 58.1
  L 316.45 58.15
  Q 316.35 58.2 316.3 58.2 315.1 58.55 313.85 59 310.1 60.55 306.35 61.65 304.4 62.2 302.4 62.65 301.35 62.9 300.3 63.05
  L 300.25 63.05
  Q 297.55 63.55 294.75 63.8 287.95 64.5 280.95 63.8 277 63.45 273.05 62.65 269.2 61.9 265.4 60.7 265.35 60.7 265.25 60.65 264.1 60.3 263 59.95 261.3 59.35 260 58.8 258.95 58.35 257.85 57.95
  L 257.7 57.95
  Q 257.65 57.95 257.55 57.9 253.95 56.5 250.1 55.8 249.8 55.75 249.55 55.7 249.15 55.6 248.75 55.55 247.85 55.35 246.9 55.2 246.85 55.2 246.75 55.2 240.3 54.3 233.6 54.95
  L 233.5 54.95
  Q 226.85 55.7 220 57.95
  L 219.95 58
  Q 219.85 58.05 219.8 58.05 218.55 58.4 217.35 58.85 213.6 60.4 209.85 61.5 207.85 62.05 205.85 62.5 204.85 62.75 203.8 62.9
  L 203.75 62.9
  Q 201.05 63.4 198.2 63.65 191.4 64.35 184.4 63.65 180.5 63.3 176.55 62.5 172.7 61.75 168.85 60.55 168.8 60.55 168.7 60.5 167.6 60.15 166.45 59.8
  L 168.15 63.6
  Q 168.45 63.7 168.7 63.8 168.8 63.85 168.85 63.85 172.7 65.15 176.55 66.05 180.5 66.95 184.4 67.4 191.4 68.35 198.2 67.85 201.05 67.7 203.75 67.25
  L 203.8 67.25
  Q 204.85 67.15 205.85 66.9 207.85 66.55 209.85 66.05 213.6 65.05 217.35 63.6 218.55 63.2 219.8 62.9 219.85 62.9 219.95 62.85
  L 220 62.8
  Q 226.85 60.75 233.5 60.2
  L 233.6 60.2
  Q 240.3 59.75 246.75 60.85 246.85 60.85 246.9 60.85 247.85 61.05 248.75 61.3 249.15 61.35 249.55 61.45 249.8 61.5 250.1 61.55 253.95 62.4 257.55 63.9 257.65 63.95 257.7 63.95
  L 257.85 63.95
  Q 258.95 64.4 260 64.85 261.3 65.45 263 66.1 264.1 66.5 265.25 66.9 265.35 66.95 265.4 66.95 269.2 68.25 273.05 69.1 277 70.05 280.95 70.5 287.95 71.4 294.75 70.9 297.55 70.75 300.25 70.35
  L 300.3 70.35
  Q 301.35 70.2 302.4 70 304.4 69.6 306.35 69.1 310.1 68.15 313.85 66.7 315.1 66.3 316.3 66 316.35 66 316.45 65.95
  L 316.55 65.9
  Q 323.4 63.85 330 63.3
  L 330.15 63.3
  Q 336.8 62.85 343.3 63.95
  L 343.4 63.95
  Q 344.8 64.2 346.1 64.55 346.35 64.6 346.6 64.65 349.3 65.2 351.85 66.1
  L 355.3 60.3 Z"/>
  
  <path fill="#D29353" stroke="none" d="
  M 351.85 66.1
  Q 349.3 65.2 346.6 64.65 346.35 64.6 346.1 64.55 344.8 64.2 343.4 63.95
  L 343.3 63.95
  Q 336.8 62.85 330.15 63.3
  L 330 63.3
  Q 323.4 63.85 316.55 65.9
  L 316.45 65.95
  Q 316.35 66 316.3 66 315.1 66.3 313.85 66.7 310.1 68.15 306.35 69.1 304.4 69.6 302.4 70 301.35 70.2 300.3 70.35
  L 300.25 70.35
  Q 297.55 70.75 294.75 70.9 287.95 71.4 280.95 70.5 277 70.05 273.05 69.1 269.2 68.25 265.4 66.95 265.35 66.95 265.25 66.9 264.1 66.5 263 66.1 261.3 65.45 260 64.85 258.95 64.4 257.85 63.95
  L 257.7 63.95
  Q 257.65 63.95 257.55 63.9 253.95 62.4 250.1 61.55 249.8 61.5 249.55 61.45 249.15 61.35 248.75 61.3 247.85 61.05 246.9 60.85 246.85 60.85 246.75 60.85 240.3 59.75 233.6 60.2
  L 233.5 60.2
  Q 226.85 60.75 220 62.8
  L 219.95 62.85
  Q 219.85 62.9 219.8 62.9 218.55 63.2 217.35 63.6 213.6 65.05 209.85 66.05 207.85 66.55 205.85 66.9 204.85 67.15 203.8 67.25
  L 203.75 67.25
  Q 201.05 67.7 198.2 67.85 191.4 68.35 184.4 67.4 180.5 66.95 176.55 66.05 172.7 65.15 168.85 63.85 168.8 63.85 168.7 63.8 168.45 63.7 168.15 63.6
  L 176.25 81.55
  Q 176.4 81.55 176.55 81.6 180.5 82.4 184.4 82.8 191.4 83.6 198.2 82.95 201.05 82.75 203.75 82.25
  L 203.8 82.25
  Q 204.85 82.15 205.85 81.85 207.85 81.45 209.85 80.9 213.6 79.85 217.35 78.3 218.55 77.9 219.8 77.55 219.85 77.55 219.95 77.5
  L 220 77.45
  Q 226.85 75.3 233.5 74.6
  L 233.6 74.6
  Q 240.3 74 246.75 74.95 246.85 74.95 246.9 74.95 247.85 75.15 248.75 75.4 249.15 75.4 249.55 75.5 249.8 75.55 250.1 75.6 253.95 76.35 257.55 77.8 257.65 77.85 257.7 77.85
  L 257.85 77.85
  Q 258.95 78.25 260 78.7 261.3 79.25 263 79.9 264.1 80.25 265.25 80.65 265.35 80.7 265.4 80.7 269.2 81.9 273.05 82.7 277 83.55 280.95 83.9 287.95 84.7 294.75 84.05 297.55 83.85 300.25 83.4
  L 300.3 83.4
  Q 301.35 83.2 302.4 83 304.4 82.55 306.35 82 310.1 81 313.85 79.45 315.1 79.05 316.3 78.7 316.35 78.7 316.45 78.65
  L 316.55 78.6
  Q 323.4 76.4 330 75.7
  L 330.15 75.7
  Q 336.8 75.15 343.3 76.1
  L 343.4 76.1
  Q 344.55 76.25 345.7 76.55
  L 351.85 66.1 Z"/>
  
  <path fill="#3BDE80" stroke="none" d="
  M 355.5 51.3
  Q 355.95 52.85 356 54.8
  L 356 53.4
  Q 356 52.35 355.9 51.45 355 43 345.5 43
  L 176.5 43
  Q 169.6 43 167.25 47.45 166 49.8 166 53.4
  L 166 54.9
  Q 166.1 51.65 167.25 49.45 169.6 45 176.5 45
  L 345.5 45
  Q 353.7 45 355.5 51.3 Z"/>
  
  <path fill="#2ECC71" stroke="none" d="
  M 346 49.35
  L 346.1 49.35
  Q 347.55 49.5 348.85 49.8 349.1 49.85 349.35 49.85 352.5 50.35 355.5 51.3 353.7 45 345.5 45
  L 176.5 45
  Q 169.6 45 167.25 49.45 166.1 51.65 166 54.9
  L 166 57.55
  Q 166.75 57.7 167.5 57.95 167.6 58 167.65 58 171.6 59.1 175.5 59.8 179.55 60.5 183.55 60.75 190.7 61.35 197.65 60.5 200.55 60.2 203.35 59.65
  L 203.4 59.65
  Q 204.45 59.45 205.5 59.2 207.5 58.7 209.55 58.1 213.4 56.95 217.25 55.3 218.45 54.85 219.75 54.45 219.8 54.45 219.9 54.4
  L 219.95 54.35
  Q 226.95 52 233.75 51.1
  L 233.85 51.1
  Q 240.7 50.3 247.3 51.1 247.4 51.1 247.45 51.1 248.4 51.2 249.35 51.4 249.75 51.45 250.15 51.55 250.4 51.6 250.7 51.65 254.65 52.25 258.35 53.6 258.45 53.65 258.5 53.65
  L 258.65 53.6
  Q 259.75 54 260.85 54.45 262.15 54.95 263.9 55.5 265.05 55.85 266.2 56.2 266.3 56.2 266.35 56.2 270.25 57.35 274.2 58 278.2 58.75 282.25 59 289.4 59.6 296.35 58.75 299.25 58.45 302 57.9
  L 302.05 57.9
  Q 303.1 57.7 304.2 57.45 306.25 56.95 308.2 56.35 312.05 55.2 315.9 53.55 317.15 53.1 318.4 52.7 318.45 52.7 318.55 52.65
  L 318.65 52.6
  Q 325.65 50.25 332.4 49.35
  L 332.55 49.35
  Q 339.35 48.55 346 49.35 Z"/>
  
  <path fill="#28B162" stroke="none" d="
  M 346.1 49.35
  L 346 49.35
  Q 339.35 48.55 332.55 49.35
  L 332.4 49.35
  Q 325.65 50.25 318.65 52.6
  L 318.55 52.65
  Q 318.45 52.7 318.4 52.7 317.15 53.1 315.9 53.55 312.05 55.2 308.2 56.35 306.25 56.95 304.2 57.45 303.1 57.7 302.05 57.9
  L 302 57.9
  Q 299.25 58.45 296.35 58.75 289.4 59.6 282.25 59 278.2 58.75 274.2 58 270.25 57.35 266.35 56.2 266.3 56.2 266.2 56.2 265.05 55.85 263.9 55.5 262.15 54.95 260.85 54.45 259.75 54 258.65 53.6
  L 258.5 53.65
  Q 258.45 53.65 258.35 53.6 254.65 52.25 250.7 51.65 250.4 51.6 250.15 51.55 249.75 51.45 249.35 51.4 248.4 51.2 247.45 51.1 247.4 51.1 247.3 51.1 240.7 50.3 233.85 51.1
  L 233.75 51.1
  Q 226.95 52 219.95 54.35
  L 219.9 54.4
  Q 219.8 54.45 219.75 54.45 218.45 54.85 217.25 55.3 213.4 56.95 209.55 58.1 207.5 58.7 205.5 59.2 204.45 59.45 203.4 59.65
  L 203.35 59.65
  Q 200.55 60.2 197.65 60.5 190.7 61.35 183.55 60.75 179.55 60.5 175.5 59.8 171.6 59.1 167.65 58 167.6 58 167.5 57.95 166.75 57.7 166 57.55
  L 166 57.9
  Q 166.05 58.85 166.45 59.8 167.6 60.15 168.7 60.5 168.8 60.55 168.85 60.55 172.7 61.75 176.55 62.5 180.5 63.3 184.4 63.65 191.4 64.35 198.2 63.65 201.05 63.4 203.75 62.9
  L 203.8 62.9
  Q 204.85 62.75 205.85 62.5 207.85 62.05 209.85 61.5 213.6 60.4 217.35 58.85 218.55 58.4 219.8 58.05 219.85 58.05 219.95 58
  L 220 57.95
  Q 226.85 55.7 233.5 54.95
  L 233.6 54.95
  Q 240.3 54.3 246.75 55.2 246.85 55.2 246.9 55.2 247.85 55.35 248.75 55.55 249.15 55.6 249.55 55.7 249.8 55.75 250.1 55.8 253.95 56.5 257.55 57.9 257.65 57.95 257.7 57.95
  L 257.85 57.95
  Q 258.95 58.35 260 58.8 261.3 59.35 263 59.95 264.1 60.3 265.25 60.65 265.35 60.7 265.4 60.7 269.2 61.9 273.05 62.65 277 63.45 280.95 63.8 287.95 64.5 294.75 63.8 297.55 63.55 300.25 63.05
  L 300.3 63.05
  Q 301.35 62.9 302.4 62.65 304.4 62.2 306.35 61.65 310.1 60.55 313.85 59 315.1 58.55 316.3 58.2 316.35 58.2 316.45 58.15
  L 316.55 58.1
  Q 323.4 55.85 330 55.1
  L 330.15 55.1
  Q 336.8 54.45 343.3 55.35
  L 343.4 55.35
  Q 344.8 55.55 346.1 55.85 346.35 55.9 346.6 55.95 350.45 56.65 354.05 58.05 354.15 58.1 354.2 58.1
  L 354.35 58.1
  Q 355.15 58.4 355.9 58.7 356 58.3 356 57.9
  L 356 55.4
  Q 356 55.3 356 55.25
  L 356 54.8
  Q 355.95 52.85 355.5 51.3 352.5 50.35 349.35 49.85 349.1 49.85 348.85 49.8 347.55 49.5 346.1 49.35 Z"/>
  </g>
  
  </defs>
  
  <g transform="matrix( 1, 0, 0, 1, 40,120) ">
  <use xlink:href="#Layer0_5_FILL"/>
  </g>
  </svg>
