<?xml version="1.0" standalone="no"?>
<!DOCTYPE svg PUBLIC "-//W3C//DTD SVG 20010904//EN"
 "http://www.w3.org/TR/2001/REC-SVG-20010904/DTD/svg10.dtd">
<svg version="1.0" xmlns="http://www.w3.org/2000/svg"
 width="70.000000pt" height="70.000000pt" viewBox="0 0 70.000000 70.000000"
 preserveAspectRatio="xMidYMid meet">
<metadata>
Created by potrace 1.11, written by Peter Selinger 2001-2013
</metadata>
<g transform="translate(0.000000,70.000000) scale(0.100000,-0.100000)"
fill="#000000" stroke="none">
<path d="M16 678 c-14 -19 -16 -67 -16 -350 l0 -328 60 0 c41 0 60 4 61 13 0
6 0 68 1 136 l0 124 36 33 c21 19 56 41 79 50 42 16 57 16 199 -2 63 -8 112
15 178 82 57 57 59 74 9 74 -49 1 -134 36 -199 83 -100 72 -184 93 -263 66
-27 -10 -33 -8 -49 10 -26 33 -76 38 -96 9z"/>
</g>
</svg>
